<svg width="1920" height="720" viewBox="0 0 1920 720" fill="none" xmlns="http://www.w3.org/2000/svg"><g clip-path="url(#clip0)"><path d="M1920 0H0v720h1920V0z" fill="#000"/><path d="M100.3 484.3H17.5v23.6h82.8v-23.6zm0 28.1H76.7v63.4h23.6v-63.4zM888.7 29.1h-27.1v197.7h27.1V29.1zM264 436v-20H121v20h143z" fill="#232323"/><path d="M1774.2 184.15h10.68v77.75h-10.68v-77.75z" fill="#fff"/><path d="M1320.4 118h21.3v5.7h-21.3V118zm-22.9 48h44.3v5.7h-44.3V166zm22.9 48.3h21.3v5.7h-21.3v-5.7zM702.5 106.1V86.4h5.2v19.7h-5.2zm44.4 21.2v-41h5.3v41h-5.3zm44.7-21.2V86.4h5.2v19.7h-5.2zm371.7 233.7h-19.7v30h19.7v-30zm63.4-32.3H1207v62.3h19.7v-62.3zm62.9 32.3h-19.7v30h19.7v-30z" fill="#232323"/><path d="M1570.6 56.8h-44v28.9h44V56.8z" fill="#fff"/><path d="M1618 149.7h-91.4v28.9h91.4v-28.9zm-47.4 92.2h-44v28.9h44v-28.9zm-302.2 394.3h-38.9v13.7h38.9v-13.7zm-1.2-34.6l-2.8-3.4-6-7.2-41.4 34.7 8.9 10.5 41.3-34.6zm116.2-303.2l60.6-49.5-4.6-5-60.4 49.3 4.4 5.2zm68.6-7.1h-56.4v7.1h56.4v-7.1zm103.1 134.3h22.3v-6.8c-.2-20.4 17.9-38.5 38.5-38.5h6.7v-22.6h-6.7c-33-.3-61.2 28.1-60.9 61.2l.1 6.7zm99.3-67.8v22.6h6.8c20.6-.2 38.6 17.8 38.4 38.5v6.8h22.4V419c.3-33.1-28-61.5-60.9-61.2h-6.7zM567.2 522.202v15.3h4.7c14-.1 26.5 12.3 26.5 26.4v4.6h15.5v-4.6c.2-22.7-19.3-42.1-42.1-41.9l-4.6.2zm46.6 68.299h-15.6v4.7c.1 14.2-12.2 26.501-26.5 26.401H567v15.399h4.6c22.8.2 42.3-19.199 42.1-41.899v-4.601h.1zM542.9 93.9H469v18.7h73.9V93.9zm3.3 101.3l-4.5 4.2-.3.3c-4.8 4.6-10.5 8.3-16.8 10.7h-.2l-.6.2c-6.1 2.2-12.5 3.3-18.9 3.4h-.2c-6.2-.1-12.4-1.2-18.3-3.1l-.5-.1.2.1c-5.8-2.4-11.2-5.6-16.1-9.5l-3.9-3.1-13 13.1 4.5 3.9c13.2 11.3 30 17.5 47.4 17.5 18-.1 35.4-6.8 49-18.7l3.9-3.5-11.7-15.4zm605.1 359.6h-59.9V570h59.9v-15.2zm-62.5-67l3.6-3.4.2-.2c3.9-3.7 8.5-6.7 13.6-8.6h.2l.5-.2c4.9-1.8 10.1-2.7 15.3-2.8h.1c5 .1 10.1 1 14.8 2.5l.4.1-.2-.1c4.7 1.9 9.1 4.5 13 7.7l3.2 2.5 10.5-10.6-3.6-3.2c-10.7-9.1-24.3-14.1-38.4-14.2-14.6.1-28.7 5.5-39.7 15.1l-3.1 2.8 9.6 12.6zm-307.3 13.3H747v136.3h34.5V501.1zm152.4-6l7.7 8.2.5.5c8.5 8.9 15.2 19.4 19.7 31v.3l.3 1.1c4 11.2 6.1 23 6.3 34.9v.3c-.2 11.5-2.2 22.9-5.8 33.8l-.3.8.2-.4c-4.4 10.7-10.3 20.6-17.5 29.6l-5.7 7.2 24.1 23.9 7.2-8.3c20.8-24.4 32.2-55.3 32.3-87.4-.3-33.3-12.5-65.4-34.5-90.4L962 473l-28.1 22.1zm-98-150.9v-11.4l-3.7.2c-13.5.8-24.7 12.5-24.7 26s11.3 25.3 24.8 25.9l3.6.1v-11.3l-3.3-.2c-7.6-.6-13.4-6.9-13.6-14.5.2-7.6 6-13.9 13.6-14.6l3.3-.2zm-16.6 46.2h-11.5v3.4c-.1 13.8 11.9 25.8 25.9 25.8 13.2 0 24.5-10.5 26-24.4l.4-3.8h-11.8l-.2 3.3c-.5 8-7.4 14-15.3 13.5-7.6-.5-13.5-6.7-13.5-14.3v-3.5zM474.7 455v-26l-8.4.5c-30.9 1.8-56.3 28.5-56.3 59.2 0 30.7 25.7 57.7 56.4 58.9l8.3.3v-25.8l-7.5-.5c-17.2-1.5-30.6-15.7-30.9-32.9.4-17.4 13.8-31.7 31.1-33.3l7.3-.4zM207 231.424V291.3l19.345-1.151C297.505 286.003 356 224.515 356 153.815S296.815 20.935 226.115 18.172L207 17.482v59.415l17.272 1.151c39.611 3.455 70.47 36.156 71.161 75.767-.921 40.071-31.781 73.003-71.621 76.688l-16.812.921zM1409 441.6V406l-11.5.7c-42.3 2.5-77.2 39-77.2 81.1 0 42.1 35.2 79.1 77.4 80.8l11.3.5v-35.4l-10.3-.6c-23.6-2-41.9-21.5-42.4-45.2.5-23.8 18.9-43.5 42.6-45.7l10.1-.6zM1094.2 63.2h-34.7v10.2c-.5 51.9 42.8 96.1 94 96.1s94.1-44.1 93.8-96.1V63.2h-34.9v10.4c.3 32.9-27.1 61.3-59 61.3s-59.7-28.2-59.3-61.3l.1-10.4zM677.5 206c-29.046 0-53.5 24.689-53.5 53.968v5.997h20.004v-5.997c0-18.364 15.46-34.011 33.496-34.011s33.496 15.741 33.496 34.011v5.997H731v-5.997C731 230.689 706.546 206 677.5 206zm-33.449 89.104H624v5.997c0 29.373 24.454 53.968 53.5 53.968s53.5-24.642 53.5-53.968v-5.997h-20.004v5.997c0 18.364-15.46 34.105-33.496 34.105s-33.496-15.741-33.496-34.105v-5.997h.047zm351.777-45.275l-43.546 37.857 8.595 9.886 43.543-37.857-8.592-9.886zm-34.907 50.261l-8.595 9.887 43.546 37.857 8.598-9.887-43.549-37.857z" fill="#232323"/><path d="M164.902 603.216l-8.453 7.348 32.346 37.207 8.453-7.349-32.346-37.206zm66.692.01l-32.346 37.207 8.453 7.348 32.345-37.207-8.452-7.348zM1864.1 548.4H1846v72.2h18.1v-72.2zm0 75.5h-88.6V642h88.6v-18.1z" fill="#fff"/><path d="M372.9 576H301v7.3h71.9V576zm12.4 0h-7.7v88.2h7.7V576zm1123 2.2h-18.6v27.7h18.6v-27.7zm69-47.1h-38.5v18.2h38.5v-18.2zm48.2 47.1h-18.6v27.7h18.6v-27.7zM151 183.01l-56.328-47.268-10.23 12.189 56.329 47.269L151 183.01zm-69.086 11.182V77.909H66.001v116.283h15.913z" fill="#232323"/></g><defs><clipPath id="clip0"><path fill="#fff" d="M0 0h1920v720H0z"/></clipPath></defs></svg>